<?xml version="1.0" encoding="UTF-8" standalone="no"?>
<!-- Created with Inkscape (http://www.inkscape.org/) from Lexy Rochelle (https://plus.google.com/116959327074054873119/posts/9C46fnSV545), Draw as SVG by Mindon (http://mindon.github.io)  -->

<svg
   xmlns:dc="http://purl.org/dc/elements/1.1/"
   xmlns:cc="http://creativecommons.org/ns#"
   xmlns:rdf="http://www.w3.org/1999/02/22-rdf-syntax-ns#"
   xmlns:svg="http://www.w3.org/2000/svg"
   xmlns="http://www.w3.org/2000/svg"
   xmlns:sodipodi="http://sodipodi.sourceforge.net/DTD/sodipodi-0.dtd"
   xmlns:inkscape="http://www.inkscape.org/namespaces/inkscape"
   width="342.62747"
   height="400.43246"
   version="1.1">
  <g
     transform="translate(7.5,-32.067525)">
    <path
       style="fill:#00a1f5"
       d="M 0,328.64126 163.81249,425 l 163.81498,-96.35624 0,-192.71499 L 163.815,39.567525 0,135.92627 0,328.64126 z" />
    <path
       style="fill:#138909"
       d="M 203.92248,401.40749 184.64749,221.52252 35.47125,115.06127 163.75749,39.601275 l 163.86998,96.391245 0,192.65124 -123.70499,72.76373 z" />
    <path
       style="fill:#1ecb0c"
       d="M 201.76873,380.6975 183.39749,222.77252 52.28,126.98127 163.81249,61.446273 l 145.195,85.404987 0.05,170.75874 -107.28875,63.08749 z" />
    <path
       style="fill:none"
       d="m 43.15,303.23375 120.66249,70.97749 120.66499,-70.97499 0,-141.95373 L 163.81374,90.303771 43.15,161.28127 l 0,141.95248 z" />
    <path
       style="fill:#ffffff"
       d="m 163.83874,351.58126 -50.71875,-89.49125 -50.82249,-89.49124 101.56624,-0.0775 101.4375,0.0512 -50.7425,89.51749 -50.71999,89.49125 z m -7.8,-45.43376 -0.0112,-66.8775 -10e-4,-2.41874 -0.2975,-0.18375 -58.60874,-34.47749 29.43749,51.98498 29.48125,51.9725 z m 15.585,-0.0812 29.41999,-51.915 29.54125,-52.03873 -58.95124,34.65498 -0.01,2.47875 0,66.82 z m -7.8,-82.96124 58.91124,-34.64249 -58.89624,-0.0625 -58.94875,0.0212 58.76875,34.58499 c 0.055,0.0325 0.11,0.065 0.165,0.0987 z" />
    <path
       style="fill:#ffffff"
       d="M 163.86374,383.33374 35.39625,307.77 l -0.025,-151.07623 128.46749,-75.566248 128.46874,75.566248 0,151.12748 -128.44374,75.51249 z m -0.025,-18.31875 105.16999,-61.83374 -48.72375,-28.6575 7.8125,-13.645 48.66,28.6075 -0.0462,-123.64748 -105.15999,-61.8625 0.0225,51.89625 -7.735,-0.0275 -7.785,0.0275 -0.0225,-51.8675 L 51.0188,165.83877 50.9213,289.53 l 48.735,-28.65125 7.81249,13.645 -48.86499,28.74 105.23499,61.75124 z" />
  </g>
</svg>
